<?xml version="1.0" encoding="UTF-8"?>
<!DOCTYPE svg PUBLIC "-//W3C//DTD SVG 1.1//EN" "http://www.w3.org/Graphics/SVG/1.1/DTD/svg11.dtd">
<!-- Creator: CorelDRAW 2018 (64-Bit) -->
<svg xmlns="http://www.w3.org/2000/svg" xml:space="preserve" width="500mm" height="500mm" version="1.1" style="shape-rendering:geometricPrecision; text-rendering:geometricPrecision; image-rendering:optimizeQuality; fill-rule:evenodd; clip-rule:evenodd"
viewBox="0 0 50000 50000"
 xmlns:xlink="http://www.w3.org/1999/xlink">
 <defs>
  <style type="text/css">
   <![CDATA[
    .fil0 {fill:black;fill-rule:nonzero}
   ]]>
  </style>
 </defs>
 <g id="Слой_x0020_1">
  <metadata id="CorelCorpID_0Corel-Layer"/>
  <path class="fil0" d="M15059.26 23023.68l-243.38 -1343.73 -243.38 1343.73c161.46,-19.69 325.3,-19.67 486.76,0zm20124.86 -12105.71c3888.58,0 7409.1,1576.22 9957.46,4124.57 2548.35,2548.36 4124.57,6068.88 4124.57,9957.46 0,3888.58 -1576.22,7409.1 -4124.57,9957.46 -2548.36,2548.35 -6068.88,4124.57 -9957.46,4124.57 -3888.58,0 -7409.1,-1576.22 -9957.46,-4124.57 -76.56,-76.56 -152.2,-154.06 -226.99,-232.36 -1279.11,1338.95 -2819.97,2426.26 -4540.71,3179.82 -1728.68,757.04 -3637.44,1177.11 -5643.08,1177.11 -3888.58,0 -7409.1,-1576.22 -9957.46,-4124.57 -2548.35,-2548.36 -4124.57,-6068.88 -4124.57,-9957.46 0,-3888.58 1576.22,-7409.1 4124.57,-9957.46 2548.36,-2548.35 6068.88,-4124.57 9957.46,-4124.57 2010.61,0 3923.79,422.12 5655.7,1182.65 1715.84,753.47 3252.34,1838.68 4528.13,3174.24 74.78,-78.29 150.4,-155.77 226.95,-232.32 2548.36,-2548.35 6068.88,-4124.57 9957.46,-4124.57zm-10523.37 23439.49c-221.62,-249.06 -434.48,-506.06 -638.21,-770.48 -1143.47,1225.45 -2529.25,2222.54 -4081.24,2915.15 -1566.45,699.07 -3301.03,1087.71 -5125.42,1087.71 -3476.54,0 -6624,-1409.19 -8902.32,-3687.52 -2278.33,-2278.32 -3687.52,-5425.78 -3687.52,-8902.32 0,-3476.54 1409.19,-6624 3687.52,-8902.32 2278.32,-2278.33 5425.78,-3687.52 8902.32,-3687.52 1826.95,0 3563.83,389.72 5131.94,1090.62 1548.79,692.26 2932.2,1688.39 4074.46,2912.58 203.8,-264.53 416.75,-521.64 638.46,-770.8 -1235.48,-1299.44 -2724.89,-2354.42 -4388.38,-3084.9 -1668.99,-732.9 -3514.68,-1139.69 -5456.48,-1139.69 -3750.56,0 -7146.08,1520.24 -9603.94,3978.09 -2457.85,2457.86 -3978.09,5853.38 -3978.09,9603.94 0,3750.56 1520.24,7146.08 3978.09,9603.94 2457.86,2457.85 5853.38,3978.09 9603.94,3978.09 1937,0 3778.28,-404.74 5443.86,-1134.15 1668.76,-730.8 3162.59,-1787.83 4401.01,-3090.42zm-821.26 -1013.56c-409.16,-555.36 -778.6,-1141.77 -1103.92,-1755.19l-4377.74 -3035.13 4170.7 6015.68c466.18,-376.28 904.4,-785.91 1310.96,-1225.36zm-1384.1 -2313.35c-793.79,-1672.37 -1267.84,-3525.97 -1342.78,-5481.88l-2128.79 -385.57 -2260.66 410.15c-40.78,135.83 -95.66,265.56 -162.96,387.49l1311.81 1892.11 4583.38 3177.7zm-1350.98 -5787.06c-1.37,-81.02 -2.32,-162.14 -2.32,-243.49 0,-74 0.74,-147.83 1.9,-221.56l-1282.51 232.69 1282.93 232.36zm7.45 -770.18c71.75,-1950.47 540.21,-3799.62 1327.08,-5469.18l-4566.94 3166.29 -1304.67 1881.82c68.05,125.48 123,259.1 163.04,399.02l2253.42 408.14 2128.07 -386.09zm1604.15 -6025.18c330.14,-626.89 706.26,-1225.77 1123.71,-1792.34 -403.5,-436.13 -838.26,-842.95 -1300.69,-1216.93l-4181.2 6030.83 4358.18 -3021.56zm22072.05 -3052.07c-2457.86,-2457.85 -5853.38,-3978.09 -9603.94,-3978.09 -3750.55,0 -7146.08,1520.24 -9603.94,3978.09 -2457.85,2457.86 -3978.09,5853.38 -3978.09,9603.94 0,3750.56 1520.24,7146.08 3978.09,9603.94 2457.86,2457.85 5853.39,3978.09 9603.94,3978.09 3750.56,0 7146.08,-1520.24 9603.94,-3978.09 2457.85,-2457.86 3978.09,-5853.38 3978.09,-9603.94 0,-3750.56 -1520.24,-7146.08 -3978.09,-9603.94zm-9603.94 -2985.9c3476.54,0 6624,1409.19 8902.32,3687.52 2278.33,2278.32 3687.52,5425.78 3687.52,8902.32 0,3476.54 -1409.19,6624 -3687.52,8902.32 -2278.32,2278.33 -5425.78,3687.52 -8902.32,3687.52 -3476.52,0 -6623.99,-1409.19 -8902.32,-3687.52 -152.47,-152.47 -300.9,-308.95 -445.43,-469.04 -12.53,-6.33 -24.7,-13.79 -36.35,-22.43 -40.74,-30.21 -69.61,-70.5 -85.73,-114.85 -1942.41,-2215.44 -3120.01,-5118.16 -3120.01,-8296 0,-2683.75 839.94,-5171.26 2271.03,-7214.35 6.44,-12.8 14.77,-24.79 24.93,-35.5 266.23,-377.32 552.66,-739.34 857.71,-1084.53 14.45,-23.06 32.93,-44.07 55.26,-61.97 154.91,-173.01 314.43,-341.81 478.59,-505.97 2278.33,-2278.33 5425.8,-3687.52 8902.32,-3687.52zm8690.22 3899.62c-306.77,-306.77 -629.73,-597.32 -967.42,-870.4l-4180.85 6030.31 6028.93 -4179.9c-276.06,-342.25 -570.07,-669.42 -880.66,-980.01zm-1202.66 -1055.99c-1672.76,-1286.97 -3686.19,-2152.98 -5881.8,-2439.48l-1453.92 8027.27 406.96 2246.86c142.16,41.49 277.75,98.41 404.82,168.82l1877.6 -1301.75 4646.34 -6701.72zm-6179.14 -2474.58c-429.94,-45.51 -866.42,-69.05 -1308.42,-69.05 -442,0 -878.49,23.5 -1308.42,69.05l1308.42 7224.01 1308.42 -7224.01zm-2914.18 35.1c-2195.58,286.55 -4209.05,1152.46 -5881.8,2439.48l4646.34 6701.72 1877.6 1301.75c127.07,-70.41 262.66,-127.33 404.82,-168.82l406.95 -2246.85 -1453.91 -8027.28zm-6117.03 2625.07c-337.66,273.1 -660.66,563.63 -967.43,870.4 -112.62,112.62 -222.98,227.5 -331.15,344.43 421.09,569.66 799.26,1171.14 1130.44,1800.3l4348.98 3015.18 -4180.84 -6030.31zm-1637.1 1596.09c-71.4,83.85 -141.82,168.56 -210.99,254.32l721.99 500.56c-161.89,-257.45 -332.33,-509.21 -511,-754.88zm-396.26 489.77c-83.38,108.7 -164.92,218.88 -244.72,330.4 703.07,1018.3 1259.96,2144.88 1640.29,3349.4 301.51,954.88 492.29,1958.8 557.26,2996.69l1003.58 181.77c-55.65,-1266.62 -282.2,-2484.84 -658.9,-3633.99 -268.08,-817.76 -612.08,-1600.82 -1024.55,-2341.71l-1272.96 -882.56zm-427.78 593.19c-1048,1547.93 -1752.38,3347.52 -2003.56,5289.23l2007.32 363.57 1999.58 -363.53c-93.89,-726 -251.1,-1432.05 -465.93,-2112.42 -359.96,-1140 -881.42,-2207.92 -1537.41,-3176.85zm-2038.32 5586.63c-15.44,147.38 -28.2,295.53 -38.38,444.41l1243.67 -226.11 -1205.29 -218.3zm-55.54 751.26c-7.84,180.27 -12.05,361.48 -12.05,543.68 0,191.09 4.52,381.12 13.22,570.06l2092.51 379 2092.73 -379.04c8.62,-188.91 12.98,-378.95 12.98,-570.02 0,-183.16 -4.01,-365.37 -11.94,-546.56l-2089.72 -378.5 -2097.73 381.38zm19.01 1420.66c10.45,147.65 23.4,294.61 39,440.78l1197.3 -216.85 -1236.3 -223.93zm74.33 738.08c253.78,1933.13 956.66,3724.85 2000.72,5266.8 657.62,-971.37 1180.06,-2042.31 1540.12,-3185.76 211.14,-670.52 366.33,-1366.01 460.11,-2080.99l-2000.62 -362.36 -2000.33 362.31zm2183.37 5529.01c83.59,116.81 169.14,232.11 256.67,345.82l1229.44 -852.39c423.75,-755.21 777.48,-1555.17 1052.31,-2391.11 375.5,-1142.11 603.53,-2351.75 661.63,-3606.39l-1003.83 181.82c-66.17,1025.82 -255.28,2018.48 -552.81,2963.34 -380.4,1208.01 -938.42,2337.84 -1643.41,3358.91zm442.32 581.01c64.5,79.7 130,158.58 196.44,236.62 166.1,-229.2 325.19,-463.82 477.02,-703.53l-673.46 466.91zm535.01 618.12c108.95,117.8 220.08,233.57 333.53,347.02 309.9,309.9 636.3,603.28 977.73,878.8l4170.54 -6015.44 -4378.77 3035.84c-325.13,612.78 -694.2,1198.78 -1103.03,1753.78zm1546.68 1411.15c1671.74,1283.32 3682.83,2146.52 5875.43,2431.89l1449.79 -8004.56 -411.4 -2271.42c-133.58,-39.32 -261.31,-92.29 -381.61,-157.26l-1896.35 1314.75 -4635.86 6686.6zm6172.78 2466.89c428.6,45.22 863.71,68.6 1304.29,68.6 440.58,0 875.7,-23.34 1304.29,-68.6l-1304.29 -7201.19 -1304.29 7201.19zm2905.93 -35c2192.6,-285.38 4203.73,-1148.52 5875.43,-2431.88l-4635.86 -6686.61 -1896.36 -1314.76c-120.3,64.98 -248.02,117.94 -381.6,157.27l-411.4 2271.4 1449.79 8004.58zm6110.85 -2617.21c341.42,-275.53 667.83,-568.91 977.73,-878.81 306.07,-306.07 596,-628.28 868.54,-965.14l-6016.81 -4171.5 4170.54 6015.45zm2031.92 -2079.14c1286.14,-1670.86 2152.16,-3681.81 2440.04,-5874.83l-8014.39 -1451.58 -2262.8 409.84c-40.78,135.8 -95.65,265.51 -162.94,387.42l1311.81 1892.11 6688.28 4637.04zm2475.37 -6172.13c46.16,-432.95 70.06,-872.56 70.06,-1317.76 0,-437.37 -22.99,-869.37 -67.59,-1294.94l-7213.82 1306.57 7211.35 1306.13zm-32.29 -2910.1c-284.01,-2195.21 -1147.15,-4208.8 -2431.34,-5882.42l-6700.03 4645.18 -1304.67 1881.82c68.05,125.48 123,259.1 163.04,399.02l2255.57 408.53 8017.43 -1452.13zm-14165 1358.7l-1354.19 245.28 1357.11 245.8c-21,-162.66 -21.96,-328.18 -2.92,-491.08zm-2192.55 397.12l-2126.7 385.19c-51.42,1339.88 -290.32,2632.41 -691.3,3852.02 -184.01,559.7 -402.2,1103.95 -652.12,1630.32l4584.05 -3178.16 1311.81 -1892.11c-67.29,-121.9 -122.16,-251.62 -162.94,-387.42l-2262.8 -409.84zm-3939.13 713.46l-1236.55 223.96 1197.57 216.91c15.57,-146.2 28.57,-293.17 38.98,-440.87zm320.39 -361.72l998.54 -180.86c2.69,-111.12 4.05,-222.58 4.05,-334.36 0,-103.97 -1.19,-207.63 -3.47,-310.99l-998.15 -180.78c6.27,163.15 9.43,327.09 9.43,491.77 0,172.57 -3.5,344.33 -10.4,515.22zm1500.48 -271.77l1279.89 -231.82 -1279.45 -231.73c1.1,73.22 1.67,146.59 1.67,220.1 0,81.32 -0.73,162.46 -2.11,243.45zm2118.26 -383.66l2255.58 -408.53c40.04,-139.91 94.98,-273.54 163.03,-399.02l-1304.67 -1881.82 -4557.86 -3159.99c241.05,512.22 451.73,1041.14 629.94,1584.78 402.15,1226.75 639.37,2527.77 688.3,3879.57l2125.68 385.01zm-5173.21 -936.98l1235.7 223.81c-10.15,-147.9 -22.91,-295.09 -38.24,-441.51l-1197.46 217.7zm12674.96 1088.82l-1354.18 -245.27c19.04,162.83 18.1,328.48 -2.91,491.07l1357.09 -245.8zm-2115.95 1565.27l1139.65 790.12 -788.9 -1137.88c-49.29,62.73 -102.26,122.41 -158.6,178.75 -60.33,60.33 -124.52,116.79 -192.15,169.01zm-3571.13 -3920.66l780.38 1125.6c51.69,-66.74 107.52,-130.13 167.12,-189.73 55.61,-55.61 114.51,-107.95 176.35,-156.69l-1123.85 -779.18zm0 4710.78l1139.65 -790.12c-67.64,-52.22 -131.82,-108.68 -192.15,-169.01 -56.33,-56.33 -109.31,-116.02 -158.6,-178.75l-788.9 1137.88zm3930.4 -3585.18l780.39 -1125.6 -1123.86 779.18c61.84,48.74 120.74,101.08 176.35,156.69 59.6,59.6 115.43,122.99 167.12,189.73zm-1575.01 4561.45l247.68 -1367.49c-164.25,20.4 -331.1,20.38 -495.36,0l247.68 1367.49zm243.38 -5319.61l-243.38 -1343.73 -243.38 1343.73c161.46,-19.69 325.3,-19.67 486.76,0zm521.64 1211.3c420.2,420.2 420.2,1109.84 0,1530.04 -420.2,420.2 -1109.84,420.2 -1530.04,0 -420.2,-420.2 -420.2,-1109.84 0,-1530.04 420.2,-420.2 1109.84,-420.2 1530.04,0zm-212.1 212.1c-303.66,-303.66 -802.18,-303.66 -1105.84,0 -303.66,303.66 -303.66,802.18 0,1105.84 303.66,303.66 802.18,303.66 1105.84,0 303.66,-303.66 303.66,-802.18 0,-1105.84zm501.45 -501.45c-579.08,-579.08 -1529.66,-579.08 -2108.74,0 -579.08,579.08 -579.08,1529.66 0,2108.74 579.08,579.08 1529.66,579.08 2108.74,0 579.08,-579.08 579.08,-1529.66 0,-2108.74zm-13934.7 -8692.35c-760.48,-585.09 -1591.38,-1083.23 -2477.85,-1479.46 -1063.02,-475.14 -2206.36,-803.59 -3404.26,-959.75l-1453.96 8027.51 406.96 2246.86c142.16,41.49 277.75,98.41 404.82,168.82l1877.6 -1301.75 4646.69 -6702.23zm-6179.44 -2474.33c-429.89,-45.44 -866.43,-68.79 -1308.47,-68.79 -442,0 -878.5,23.5 -1308.42,69.05l1308.42 7224.01 1308.47 -7224.27zm-2914.23 35.36c-2195.6,286.54 -4209.05,1152.46 -5881.8,2439.48l4646.34 6701.72 1877.6 1301.75c127.07,-70.41 262.66,-127.33 404.82,-168.82l406.95 -2246.85 -1453.91 -8027.28zm-6117.04 2625.07c-337.66,273.1 -660.65,563.63 -967.42,870.4 -310.59,310.59 -604.61,637.76 -880.66,980.01l6028.93 4179.9 -4180.85 -6030.31zm-2033.35 2085.86c-1284.16,1673.63 -2147.34,3687.21 -2431.34,5882.42l8017.42 1452.13 2255.59 -408.53c40.04,-139.91 94.98,-273.54 163.03,-399.02l-1304.67 -1881.82 -6700.03 -4645.18zm-2466.1 6179.82c-44.57,425.57 -67.59,857.56 -67.59,1294.94 0,445.2 23.85,884.82 70.06,1317.76l7211.35 -1306.13 -7213.82 -1306.57zm37.8 2910c287.89,2193.02 1153.91,4203.99 2440.04,5874.83l6688.28 -4637.04 1311.81 -1892.11c-67.29,-121.9 -122.16,-251.62 -162.94,-387.42l-2262.8 -409.84 -8014.39 1451.58zm2625.69 6110.02c272.56,336.84 562.47,659.07 868.54,965.14 309.9,309.9 636.3,603.29 977.73,878.81l4170.54 -6015.45 -6016.81 4171.5zm2081.69 2029.28c1671.73,1283.31 3682.82,2146.51 5875.43,2431.88l1449.79 -8004.56 -411.4 -2271.42c-133.58,-39.32 -261.31,-92.29 -381.61,-157.26l-1896.35 1314.75 -4635.86 6686.61zm6172.78 2466.88c428.6,45.22 863.71,68.6 1304.29,68.6 440.62,0 875.79,-23.17 1304.33,-68.35l-1304.33 -7201.44 -1304.29 7201.19zm2905.97 -34.77c1196.97,-155.62 2339.48,-483.26 3401.86,-957.38 884.64,-394.79 1714.12,-891.25 2473.7,-1474.49l-4636.03 -6686.84 -1896.36 -1314.77c-120.3,64.98 -248.02,117.94 -381.6,157.27l-411.4 2271.4 1449.83 8004.81zm-3579.19 -12420.11l-1354.2 245.28 1357.12 245.8c-21,-162.66 -21.96,-328.18 -2.92,-491.08zm5307.76 245.02l-1352.74 -245.02c19.04,162.84 18.08,328.37 -2.9,490.97l1355.64 -245.95zm-2114.51 1565.52l1139.65 790.13 -788.9 -1137.89c-49.29,62.73 -102.26,122.41 -158.6,178.75 -60.33,60.33 -124.52,116.79 -192.15,169.01zm-3571.14 -3920.66l780.39 1125.6c51.69,-66.74 107.52,-130.13 167.12,-189.73 55.61,-55.61 114.51,-107.95 176.35,-156.69l-1123.86 -779.18zm0.01 4710.78l1139.65 -790.12c-67.64,-52.22 -131.82,-108.68 -192.15,-169.01 -56.33,-56.33 -109.31,-116.02 -158.6,-178.75l-788.9 1137.88zm3930.4 -3585.18l780.39 -1125.6 -1123.86 779.18c61.84,48.74 120.74,101.08 176.35,156.69 59.6,59.6 115.43,122.99 167.12,189.73zm-1575.01 4561.45l247.68 -1367.49c-164.25,20.4 -331.1,20.38 -495.36,0l247.68 1367.49zm765.02 -4108.31c420.2,420.2 420.2,1109.84 0,1530.04 -420.2,420.2 -1109.84,420.2 -1530.04,0 -420.2,-420.2 -420.2,-1109.84 0,-1530.04 420.2,-420.2 1109.84,-420.2 1530.04,0zm-212.1 212.1c-303.66,-303.66 -802.18,-303.66 -1105.84,0 -303.66,303.66 -303.66,802.18 0,1105.84 303.66,303.66 802.18,303.66 1105.84,0 303.66,-303.66 303.66,-802.18 0,-1105.84zm501.45 -501.45c-579.08,-579.08 -1529.66,-579.08 -2108.74,0 -579.08,579.08 -579.08,1529.66 0,2108.74 579.08,579.08 1529.66,579.08 2108.74,0 579.08,-579.08 579.08,-1529.66 0,-2108.74z"/>
 </g>
</svg>
