<?xml version="1.0" encoding="UTF-8"?>
<svg id="Layer_2" data-name="Layer 2" xmlns="http://www.w3.org/2000/svg" viewBox="0 0 744.08 624.53">
  <defs>
    <style>
      .cls-1, .cls-2 {
        fill: #fff;
      }

      .cls-3 {
        letter-spacing: -.03em;
      }

      .cls-2 {
        font-family: Barriecito-Regular, Barriecito;
        font-size: 89.58px;
      }
    </style>
  </defs>
  <g id="go_logo_design_with_bike" data-name="go logo design with bike">
    <g id="logo">
      <g>
        <path class="cls-1" d="M647.9,193.19c-33.29-24.72-74.22-35-115.24-28.93-15.1,2.23-29.35,6.61-42.54,12.73L404.65,20.48h101.45c4.22,1.16,22.03,6.8,26.04,20.43,4.14,14.07-7.23,35.47-32.02,60.25l14.48,14.48c31.21-31.21,43.72-58.3,37.19-80.52C543.79,7.93,510.92.53,509.53.23l-1.07-.23h-138.34l102.03,186.83c-50.07,31.91-79.58,91.25-70.36,153.68,6.06,41.02,27.73,77.22,61.02,101.94,27.05,20.08,59.13,30.63,92.21,30.63,7.64,0,15.33-.56,23.02-1.7,41.02-6.06,77.22-27.73,101.94-61.02,24.72-33.29,34.99-74.21,28.93-115.23-6.06-41.02-27.73-77.22-61.02-101.94ZM663.54,398.15c-21.46,28.9-52.88,47.71-88.49,52.97-35.6,5.26-71.13-3.66-100.02-25.11-28.9-21.46-47.71-52.88-52.97-88.49-7.94-53.72,17.17-104.8,59.93-132.67l64.37,117.88,17.98-9.82-64.38-117.9c11.11-5.01,23.06-8.63,35.69-10.49,6.68-.99,13.35-1.48,19.98-1.48,28.71,0,56.57,9.16,80.04,26.59,28.9,21.46,47.71,52.88,52.97,88.49,5.26,35.61-3.66,71.13-25.11,100.03Z"/>
        <path class="cls-1" d="M188.69,328.07h134.36c-5.25,69.53-63.51,124.51-134.36,124.51s-134.75-60.45-134.75-134.75,60.45-134.75,134.75-134.75h17.29l-35.81-65.34-17.96,9.85,19.68,35.91c-77.73,8.4-138.43,74.41-138.43,154.33,0,85.6,69.64,155.23,155.23,155.23s155.23-69.64,155.23-155.23v-10.24h-155.23v20.48Z"/>
        <polygon class="cls-1" points="256.86 274.02 413.02 163.35 401.17 146.64 266.06 242.39 221.36 273.98 256.82 273.98 256.82 273.97 256.86 274.02"/>
      </g>
      <g>
        <circle class="cls-1" cx="188.69" cy="317.82" r="19.46" transform="translate(-107.26 96.4) rotate(-22.5)"/>
        <circle class="cls-1" cx="552.28" cy="317.82" r="19.46" transform="translate(-62.97 483.61) rotate(-45)"/>
        <circle class="cls-1" cx="508.76" cy="107.86" r="19.46" transform="translate(-2.55 202.9) rotate(-22.5)"/>
        <path class="cls-1" d="M89.83,87.95l123.31,3.04c6.44.16,12.75,2.36,17.58,6.63,2.09,1.85,4.06,4.18,5.59,7.12,1.62,3.12-.57,6.86-4.09,6.86h-28.01s-24.58,0-38.24,15.02c-13.66,15.02-63.84-1.71-83.64-22.87,0,0-.27-.27-.66-.81-4.57-6.34.34-15.19,8.15-15Z"/>
      </g>
    </g>
    <text class="cls-2" transform="translate(0 593.54)"><tspan x="0" y="0">TUSSEN DE S</tspan><tspan class="cls-3" x="496.83" y="0">P</tspan><tspan x="541.08" y="0">AKEN</tspan></text>
  </g>
</svg>